<?xml version="1.0" encoding="utf-8"?>
<!-- Generator: Adobe Illustrator 17.0.0, SVG Export Plug-In . SVG Version: 6.00 Build 0)  -->
<!DOCTYPE svg PUBLIC "-//W3C//DTD SVG 1.1//EN" "http://www.w3.org/Graphics/SVG/1.1/DTD/svg11.dtd">
<svg version="1.1" id="Слой_1" xmlns="http://www.w3.org/2000/svg" xmlns:xlink="http://www.w3.org/1999/xlink" x="0px" y="0px"
	 width="25px" height="25px" viewBox="285.14 392.854 25 25" enable-background="new 285.14 392.854 25 25" xml:space="preserve">
<g>
	<circle fill="#FFFFFF" cx="297.64" cy="405.354" r="12.5"/>
	<g>
		<g>
			<path d="M297.04,411.154c-3.7,0-6.6-3-6.6-6.6c0-3.6,3-6.6,6.6-6.5c3.7,0,6.6,3,6.5,6.6
				C303.54,408.254,300.74,411.154,297.04,411.154z M298.94,404.654c0-1-0.8-1.9-1.8-1.9c-1.1,0-1.9,0.7-2,1.8c0,1,0.8,1.9,1.8,1.9
				C298.04,406.554,298.84,405.754,298.94,404.654z M291.84,406.654L291.84,406.654c0-2,0.6-3.8,2-5.2c1.4-1.4,3.2-2.1,5.2-2
				c-0.1-0.1-0.2-0.1-0.4-0.2c-1-0.3-2.1-0.3-3.1-0.1c-2.3,0.6-4,2.6-4.2,5c-0.1,0.7,0,1.5,0.3,2.2
				C291.74,406.454,291.74,406.554,291.84,406.654z"/>
			<path d="M305.04,407.954c-0.4-0.2-0.7-0.5-0.9-0.9c-0.2-0.7,0.2-1.5,0.9-1.7c0.7-0.3,1.5,0.1,1.8,0.8c0.3,0.7,0,1.5-0.7,1.8
				c-0.1,0.1-0.2,0.1-0.2,0.3c-0.4,1.4-1.2,2.5-2.4,3.3c-1,0.7-2.1,1.1-3.3,1.4c-0.1,0-0.2,0.1-0.2,0.2c0,0.5-0.5,0.9-1,0.9
				c-1.3,0-2.7,0-4,0c-0.5,0-0.9-0.4-0.9-0.8c0-0.3-0.1-0.6-0.1-0.9c0-0.5,0.3-0.7,0.7-0.5c0.6,0.2,1.2,0.3,1.9,0.4
				c1,0.1,1.9-0.1,2.8-0.4l0,0c0.4-0.1,0.6,0,0.8,0.3c0.6-0.1,1.1-0.3,1.7-0.6c1-0.5,1.9-1.1,2.6-2
				C304.64,408.954,304.84,408.454,305.04,407.954z"/>
		</g>
	</g>
</g>
</svg>
