<?xml version="1.0" encoding="utf-8"?>
<!-- Generator: Adobe Illustrator 20.1.0, SVG Export Plug-In . SVG Version: 6.00 Build 0)  -->
<svg version="1.1" id="Слой_1" xmlns="http://www.w3.org/2000/svg" xmlns:xlink="http://www.w3.org/1999/xlink" x="0px" y="0px"
	 viewBox="0 0 16.5 16" style="enable-background:new 0 0 16.5 16;" xml:space="preserve">
<style type="text/css">
	.st0{fill:#00B4FA;}
</style>
<g>
	<g>
		<g>
			<path class="st0" d="M6.6,13.1c-3.7,0-6.6-3-6.6-6.6S3-0.1,6.6,0c3.7,0,6.6,3,6.5,6.6C13.1,10.2,10.3,13.1,6.6,13.1z M8.5,6.6
				c0-1-0.8-1.9-1.8-1.9c-1.1,0-1.9,0.7-2,1.8c0,1,0.8,1.9,1.8,1.9C7.6,8.5,8.4,7.7,8.5,6.6z M1.4,8.6L1.4,8.6c0-2,0.6-3.8,2-5.2
				c1.4-1.4,3.2-2.1,5.2-2C8.5,1.3,8.4,1.3,8.2,1.2c-1-0.3-2.1-0.3-3.1-0.1c-2.3,0.6-4,2.6-4.2,5c-0.1,0.7,0,1.5,0.3,2.2
				C1.3,8.4,1.3,8.5,1.4,8.6z"/>
			<path class="st0" d="M14.6,9.9c-0.4-0.2-0.7-0.5-0.9-0.9c-0.2-0.7,0.2-1.5,0.9-1.7c0.7-0.3,1.5,0.1,1.8,0.8
				c0.3,0.7,0,1.5-0.7,1.8c-0.1,0.1-0.2,0.1-0.2,0.3c-0.4,1.4-1.2,2.5-2.4,3.3c-1,0.7-2.1,1.1-3.3,1.4c-0.1,0-0.2,0.1-0.2,0.2
				c0,0.5-0.5,0.9-1,0.9c-1.3,0-2.7,0-4,0c-0.5,0-0.9-0.4-0.9-0.8c0-0.3-0.1-0.6-0.1-0.9c0-0.5,0.3-0.7,0.7-0.5
				c0.6,0.2,1.2,0.3,1.9,0.4c1,0.1,1.9-0.1,2.8-0.4l0,0c0.4-0.1,0.6,0,0.8,0.3c0.6-0.1,1.1-0.3,1.7-0.6c1-0.5,1.9-1.1,2.6-2
				C14.2,10.9,14.4,10.4,14.6,9.9z"/>
		</g>
	</g>
</g>
</svg>
