<?xml version="1.0" encoding="utf-8"?>
<!-- Generator: Adobe Illustrator 20.1.0, SVG Export Plug-In . SVG Version: 6.00 Build 0)  -->
<svg version="1.1" id="Слой_1" xmlns="http://www.w3.org/2000/svg" xmlns:xlink="http://www.w3.org/1999/xlink" x="0px" y="0px"
	 viewBox="0 0 11.1 16.7" style="enable-background:new 0 0 11.1 16.7;" xml:space="preserve">
<style type="text/css">
	.st0{fill:#00B4FA;}
</style>
<g>
	<g>
		<g>
			<path class="st0" d="M5.6,0c0.7,1.2,1.5,2.5,2.3,3.9c0.7,1.2,1.5,2.4,2.2,3.7c0.7,1.3,1.2,2.8,1,4.3c-0.3,2.5-2,4.2-4.5,4.7
				c-2.9,0.5-5.7-1.2-6.4-4C-0.2,11.2,0,9.8,0.6,8.6c0.3-0.7,0.7-1.4,1.1-2.1c0.6-1,1.2-1.9,1.8-2.8C4.2,2.4,4.9,1.1,5.6,0z M5,15.2
				c0.1-0.1,0.4-0.2,0.4-0.4c0.1-0.4-0.2-0.5-0.6-0.5c-1.5-0.1-2.5-1.2-2.6-2.6c0-0.4-0.1-0.7-0.5-0.6c-0.4,0-0.4,0.3-0.4,0.7
				C1.3,13.5,3,15.2,5,15.2z"/>
		</g>
	</g>
</g>
</svg>
