<?xml version="1.0" encoding="utf-8"?>
<!-- Generator: Adobe Illustrator 17.0.0, SVG Export Plug-In . SVG Version: 6.00 Build 0)  -->
<!DOCTYPE svg PUBLIC "-//W3C//DTD SVG 1.1//EN" "http://www.w3.org/Graphics/SVG/1.1/DTD/svg11.dtd">
<svg version="1.1" id="Слой_1" xmlns="http://www.w3.org/2000/svg" xmlns:xlink="http://www.w3.org/1999/xlink" x="0px" y="0px"
	 width="25px" height="25px" viewBox="0 0 25 25" enable-background="new 0 0 25 25" xml:space="preserve">
<g>
	<circle fill="#FFFFFF" cx="12.5" cy="12.5" r="12.5"/>
	<g>
		<g>
			<path d="M12.494,4.172c0.706,1.186,1.509,2.546,2.323,3.899c0.735,1.222,1.529,2.411,2.211,3.661
				c0.726,1.33,1.189,2.756,0.974,4.308c-0.34,2.465-2.049,4.238-4.492,4.693c-2.904,0.54-5.717-1.237-6.407-4.047
				c-0.333-1.358-0.122-2.666,0.414-3.924c0.303-0.71,0.664-1.4,1.058-2.065c0.565-0.955,1.204-1.865,1.773-2.817
				C11.115,6.599,11.845,5.297,12.494,4.172z M11.97,19.405c0.08-0.074,0.397-0.228,0.437-0.435
				c0.076-0.395-0.249-0.501-0.611-0.529c-1.463-0.114-2.506-1.16-2.621-2.624c-0.028-0.36-0.126-0.656-0.537-0.625
				c-0.383,0.029-0.432,0.337-0.425,0.667C8.249,17.692,9.921,19.368,11.97,19.405z"/>
		</g>
	</g>
</g>
</svg>
