<?xml version="1.0" encoding="utf-8"?>
<!-- Generator: Adobe Illustrator 17.0.0, SVG Export Plug-In . SVG Version: 6.00 Build 0)  -->
<!DOCTYPE svg PUBLIC "-//W3C//DTD SVG 1.1//EN" "http://www.w3.org/Graphics/SVG/1.1/DTD/svg11.dtd">
<svg version="1.1" id="Слой_1" xmlns="http://www.w3.org/2000/svg" xmlns:xlink="http://www.w3.org/1999/xlink" x="0px" y="0px"
	 width="20.364px" height="19.839px" viewBox="0 0 20.364 19.839" enable-background="new 0 0 20.364 19.839" xml:space="preserve">
<g opacity="0.2">
	<g>
		<path fill="#FFFFFF" d="M8.145,16.339C3.585,16.295-0.04,12.629,0,8.104c0.04-4.512,3.731-8.156,8.209-8.104
			c4.544,0.053,8.165,3.736,8.119,8.24C16.284,12.66,12.713,16.32,8.145,16.339z M10.492,8.223c0.054-1.232-0.957-2.327-2.198-2.381
			c-1.325-0.058-2.403,0.921-2.466,2.24c-0.059,1.245,0.953,2.363,2.188,2.415C9.365,10.553,10.432,9.573,10.492,8.223z M1.691,10.7
			c0.02-0.004,0.039-0.007,0.059-0.011C1.664,8.183,2.454,6.006,4.228,4.231c1.773-1.774,3.95-2.56,6.457-2.507
			c-0.15-0.099-0.299-0.182-0.458-0.233C8.957,1.085,7.673,1.058,6.386,1.398c-2.893,0.765-4.953,3.223-5.202,6.21
			C1.108,8.526,1.204,9.43,1.507,10.305C1.554,10.442,1.629,10.569,1.691,10.7z"/>
		<path fill="#FFFFFF" d="M18.048,12.365c-0.546-0.221-0.925-0.583-1.101-1.132c-0.285-0.891,0.191-1.849,1.072-2.17
			c0.877-0.32,1.852,0.114,2.212,0.984c0.358,0.863-0.032,1.858-0.895,2.245c-0.16,0.072-0.229,0.159-0.272,0.328
			c-0.447,1.75-1.494,3.074-2.949,4.098c-1.23,0.866-2.599,1.425-4.057,1.772c-0.161,0.038-0.208,0.107-0.221,0.261
			c-0.053,0.614-0.561,1.084-1.18,1.086c-1.674,0.005-3.347,0.004-5.021,0c-0.573-0.001-1.078-0.46-1.148-1.03
			c-0.048-0.391-0.101-0.782-0.125-1.175C4.33,17.068,4.69,16.8,5.231,16.972c0.766,0.244,1.544,0.424,2.346,0.5
			c1.179,0.111,2.309-0.134,3.428-0.469c0.013-0.004,0.026-0.011,0.039-0.015c0.501-0.159,0.724-0.059,0.938,0.432
			c0.708-0.177,1.393-0.425,2.054-0.737c1.263-0.596,2.378-1.38,3.191-2.541C17.601,13.605,17.88,13.024,18.048,12.365z"/>
	</g>
</g>
</svg>
