<?xml version="1.0" encoding="utf-8"?>
<!-- Generator: Adobe Illustrator 17.0.0, SVG Export Plug-In . SVG Version: 6.00 Build 0)  -->
<!DOCTYPE svg PUBLIC "-//W3C//DTD SVG 1.1//EN" "http://www.w3.org/Graphics/SVG/1.1/DTD/svg11.dtd">
<svg version="1.1" id="Слой_1" xmlns="http://www.w3.org/2000/svg" xmlns:xlink="http://www.w3.org/1999/xlink" x="0px" y="0px"
	 width="157.071px" height="125.657px" viewBox="0 0 157.071 125.657" enable-background="new 0 0 157.071 125.657"
	 xml:space="preserve">
<path opacity="0.1" fill="#FFFFFF" d="M78.535,47.121c-13.013,0-23.561,10.555-23.561,23.561s10.547,23.561,23.561,23.561
	c13.005,0,23.561-10.555,23.561-23.561S91.541,47.121,78.535,47.121z M141.364,23.561h-18.848c-2.592,0-5.388-2.011-6.196-4.477
	l-4.877-14.615C110.617,2.01,107.837,0,105.237,0H51.833c-2.592,0-5.388,2.011-6.196,4.461l-4.885,14.623
	c-0.817,2.466-3.605,4.477-6.196,4.477H15.707C7.068,23.561,0,30.629,0,39.268v70.682c0,8.639,7.068,15.707,15.707,15.707h125.657
	c8.639,0,15.707-7.068,15.707-15.707V39.268C157.071,30.629,150.003,23.561,141.364,23.561z M78.535,109.95
	c-21.691,0-39.268-17.576-39.268-39.268s17.576-39.268,39.268-39.268c21.684,0,39.268,17.576,39.268,39.268
	S100.219,109.95,78.535,109.95z M137.437,48.692c-3.039,0-5.497-2.466-5.497-5.505c0-3.024,2.458-5.497,5.497-5.497
	c3.039,0,5.497,2.466,5.497,5.497C142.934,46.226,140.476,48.692,137.437,48.692z"/>
</svg>
