<?xml version="1.0" encoding="utf-8"?>
<!-- Generator: Adobe Illustrator 17.0.0, SVG Export Plug-In . SVG Version: 6.00 Build 0)  -->
<!DOCTYPE svg PUBLIC "-//W3C//DTD SVG 1.1//EN" "http://www.w3.org/Graphics/SVG/1.1/DTD/svg11.dtd">
<svg version="1.1" id="Слой_1" xmlns="http://www.w3.org/2000/svg" xmlns:xlink="http://www.w3.org/1999/xlink" x="0px" y="0px"
	 width="52.422px" height="42.959px" viewBox="0 0 52.422 42.959" enable-background="new 0 0 52.422 42.959" xml:space="preserve">
<g>
	<path fill="#FFFFFF" d="M34.519,14.869c0.082-0.727,0.063-1.441-0.163-2.146c-1.008-3.136-3.643-5.527-7.362-5.861
		c-0.373-0.034-0.747-0.051-1.119-0.051c-0.732,0-1.461,0.069-2.184,0.221c-2.905,0.613-4.932,2.266-5.974,5.072
		c-0.239,0.642-0.401,1.308-0.373,1.997c0.048,1.193,0.264,2.362,0.552,3.518c0.055,0.219,0.08,0.406-0.084,0.593
		c-0.076,0.087-0.117,0.208-0.161,0.319c-0.374,0.957-0.394,1.936-0.158,2.925c0.211,0.885,0.642,1.645,1.332,2.247
		c0.105,0.091,0.174,0.189,0.215,0.316c0.158,0.483,0.313,0.966,0.479,1.446c0.393,1.133,0.684,2.305,1.301,3.351
		c0.08,0.135,0.106,0.273,0.097,0.428c-0.029,0.492-0.103,0.975-0.27,1.44C20.104,32.2,19.047,33.262,17.652,34
		c-1.76,0.932-3.535,1.836-5.305,2.749c-0.307,0.158-0.605,0.336-0.928,0.464c0.332,0.371,0.725,0.675,1.11,0.987
		c1.491,1.209,3.119,2.196,4.877,2.967c1.054,0.462,2.138,0.839,3.256,1.115c0.827,0.205,1.662,0.365,2.509,0.479
		c0.818,0.111,1.639,0.168,2.461,0.192c0.132,0.004,0.264,0.006,0.396,0.006c0.757,0,1.513-0.059,2.268-0.14
		c0.653-0.07,1.303-0.166,1.944-0.299c0.938-0.194,1.861-0.447,2.768-0.763c2.06-0.718,3.957-1.738,5.709-3.033
		c0.63-0.466,1.233-0.965,1.796-1.51c-1.83-0.939-3.657-1.885-5.492-2.815c-0.784-0.397-1.525-0.847-2.164-1.459
		c-0.847-0.812-1.487-1.746-1.75-2.908c-0.126-0.557-0.195-1.108,0.192-1.607c0.065-0.084,0.104-0.188,0.151-0.285
		c0.127-0.263,0.293-0.509,0.381-0.79c0.36-1.152,0.72-2.304,1.076-3.457c0.024-0.079,0.062-0.135,0.127-0.186
		c0.393-0.306,0.701-0.685,0.943-1.118c0.546-0.977,0.688-2.027,0.542-3.124c-0.068-0.515-0.209-1.007-0.523-1.433
		c-0.051-0.069-0.038-0.133-0.02-0.203C34.217,16.853,34.406,15.869,34.519,14.869z"/>
	<path fill="#FFFFFF" d="M10.29,35.701l0.462-0.182c0.134-0.053,0.302-0.143,0.481-0.239c0.093-0.05,0.186-0.1,0.28-0.148
		l1.261-0.649c1.345-0.692,2.69-1.383,4.027-2.091c1.081-0.572,1.779-1.331,2.133-2.321c0.066-0.185,0.113-0.394,0.142-0.644
		c-0.465-0.868-0.747-1.742-1.02-2.59c-0.083-0.259-0.167-0.517-0.256-0.774c-0.137-0.396-0.267-0.795-0.397-1.194
		c-0.834-0.804-1.398-1.808-1.68-2.989c-0.336-1.407-0.257-2.757,0.245-4.039c0.018-0.047,0.04-0.104,0.068-0.169
		c-0.303-1.294-0.466-2.413-0.51-3.495c-0.034-0.849,0.125-1.733,0.485-2.705c1.164-3.133,3.491-5.209,6.727-6.064
		c-1.121-2.88-3.648-5.04-7.161-5.356c-1.107-0.1-2.212-0.06-3.303,0.17C9.367,0.834,7.34,2.488,6.298,5.294
		C6.059,5.936,5.897,6.601,5.925,7.291c0.048,1.193,0.264,2.362,0.552,3.518c0.055,0.219,0.08,0.406-0.084,0.593
		c-0.076,0.087-0.117,0.208-0.161,0.319c-0.374,0.957-0.394,1.936-0.158,2.925c0.211,0.885,0.642,1.645,1.332,2.247
		c0.105,0.091,0.174,0.189,0.215,0.316c0.158,0.483,0.313,0.966,0.479,1.446c0.393,1.133,0.684,2.306,1.301,3.351
		c0.08,0.135,0.106,0.273,0.097,0.428c-0.029,0.492-0.103,0.975-0.27,1.44c-0.543,1.516-1.601,2.578-2.996,3.316
		c-1.76,0.932-3.535,1.836-5.305,2.749C0.621,30.097,0.323,30.275,0,30.402c0.332,0.371,0.725,0.675,1.11,0.987
		c1.491,1.209,3.119,2.196,4.877,2.967c1.054,0.462,2.138,0.839,3.256,1.115C9.589,35.557,9.939,35.63,10.29,35.701z"/>
	<path fill="#FFFFFF" d="M46.93,27.587c-0.784-0.397-1.525-0.847-2.164-1.459c-0.847-0.812-1.487-1.746-1.75-2.908
		c-0.126-0.557-0.195-1.108,0.192-1.607c0.065-0.084,0.104-0.188,0.151-0.285c0.127-0.263,0.293-0.509,0.381-0.79
		c0.36-1.152,0.72-2.304,1.076-3.457c0.024-0.079,0.062-0.135,0.127-0.186c0.393-0.305,0.701-0.685,0.943-1.118
		c0.546-0.977,0.688-2.027,0.542-3.125c-0.068-0.515-0.209-1.007-0.523-1.433c-0.051-0.069-0.038-0.133-0.021-0.204
		c0.243-0.975,0.432-1.96,0.545-2.959c0.082-0.727,0.063-1.441-0.163-2.146c-1.007-3.136-3.643-5.527-7.362-5.861
		c-1.107-0.1-2.212-0.06-3.303,0.17c-2.905,0.613-4.932,2.267-5.974,5.072c-0.03,0.082-0.053,0.166-0.08,0.248
		c3.095,1.014,5.507,3.404,6.542,6.625c0.283,0.88,0.361,1.831,0.239,2.908c-0.096,0.845-0.242,1.698-0.444,2.591
		c0.216,0.461,0.361,0.977,0.438,1.561c0.206,1.552-0.049,2.983-0.757,4.251c-0.287,0.514-0.636,0.966-1.042,1.348
		c-0.317,1.024-0.636,2.046-0.956,3.069c-0.112,0.358-0.269,0.647-0.384,0.858c-0.032,0.06-0.066,0.119-0.111,0.214
		c-0.044,0.096-0.118,0.258-0.237,0.437c0.008,0.05,0.021,0.123,0.045,0.229c0.16,0.708,0.552,1.341,1.233,1.994
		c0.421,0.403,0.953,0.757,1.727,1.15c1.309,0.663,2.615,1.335,3.92,2.007l1.581,0.813l0.375,0.193
		c0.144-0.026,0.289-0.048,0.432-0.077c0.938-0.194,1.861-0.447,2.768-0.763c2.06-0.718,3.957-1.738,5.709-3.033
		c0.63-0.466,1.233-0.965,1.796-1.51C50.592,29.463,48.765,28.517,46.93,27.587z"/>
</g>
</svg>
