<svg xmlns="http://www.w3.org/2000/svg" viewBox="0 0 49 40.16"><defs><style>.cls-1{fill:#fff;}.cls-2{fill:none;}</style></defs><title>Ресурс 1</title><g id="Шар_2" data-name="Шар 2"><g id="UI"><polygon class="cls-1" points="31.84 35.64 37.87 35.64 37.87 14.46 45.17 14.46 45.17 9.68 24.54 9.68 24.54 14.46 31.84 14.46 31.84 35.64"/><path class="cls-2" d="M29.4,26.3a1.46,1.46,0,0,1-.14.27,1.67,1.67,0,0,0-.18,1.5,4.78,4.78,0,0,0,.61,1.48V25.7C29.6,25.91,29.49,26.1,29.4,26.3Z"/><path class="cls-1" d="M29.69,37.91V29.55a4.78,4.78,0,0,1-.61-1.48,1.67,1.67,0,0,1,.18-1.5,1.46,1.46,0,0,0,.14-.27c.1-.2.21-.4.29-.61v-9H22.38V7.49h6.26a8.1,8.1,0,0,0-3.41-1.08c-.35,0-.7,0-1,0a9.87,9.87,0,0,0-2,.21,7.16,7.16,0,0,0-5.58,4.74,4.8,4.8,0,0,0-.35,1.87,16.32,16.32,0,0,0,.52,3.29.54.54,0,0,1-.08.55,1,1,0,0,0-.15.3,4.48,4.48,0,0,0-.15,2.73,3.92,3.92,0,0,0,1.25,2.1.64.64,0,0,1,.2.3c.15.45.29.9.45,1.35a16.72,16.72,0,0,0,1.22,3.13.67.67,0,0,1,.09.4,4.82,4.82,0,0,1-.25,1.35,5.6,5.6,0,0,1-2.8,3.1c-1.65.87-3.3,1.72-5,2.57a9.59,9.59,0,0,1-.87.43,8.74,8.74,0,0,0,1,.92,19.86,19.86,0,0,0,4.56,2.77,18.85,18.85,0,0,0,3,1,22,22,0,0,0,2.34.45,21.76,21.76,0,0,0,2.3.18h.37A19.9,19.9,0,0,0,26.45,40c.61-.07,1.22-.16,1.82-.28A20.45,20.45,0,0,0,30.85,39a19.64,19.64,0,0,0,2.57-1.13H29.69Z"/><path class="cls-1" d="M11.94,32.23c1.26-.65,2.51-1.29,3.76-2a3.92,3.92,0,0,0,2-2.17,2.7,2.7,0,0,0,.13-.6,14.19,14.19,0,0,1-1-2.42c-.08-.24-.16-.48-.24-.72s-.25-.74-.37-1.12a5.61,5.61,0,0,1-1.57-2.79,6.2,6.2,0,0,1,.23-3.78l.06-.16a17.17,17.17,0,0,1-.48-3.27A6.46,6.46,0,0,1,15,10.72a8.84,8.84,0,0,1,6.29-5.67,7.75,7.75,0,0,0-6.69-5,10.38,10.38,0,0,0-3.09.16A7.16,7.16,0,0,0,5.89,4.95a4.8,4.8,0,0,0-.35,1.87,16.32,16.32,0,0,0,.52,3.29.54.54,0,0,1-.08.55,1,1,0,0,0-.15.3,4.48,4.48,0,0,0-.15,2.73,3.92,3.92,0,0,0,1.25,2.1.64.64,0,0,1,.2.3c.15.45.29.9.45,1.35a16.74,16.74,0,0,0,1.22,3.13.67.67,0,0,1,.09.4,4.81,4.81,0,0,1-.25,1.35,5.6,5.6,0,0,1-2.8,3.1c-1.65.87-3.3,1.72-5,2.57a9.59,9.59,0,0,1-.87.43,8.73,8.73,0,0,0,1,.92A19.85,19.85,0,0,0,5.6,32.11a18.87,18.87,0,0,0,3,1l1,.21L10,33.2A4.72,4.72,0,0,0,10.5,33l.26-.14Z"/><path class="cls-1" d="M40.16,20.71a1.23,1.23,0,0,1,.23-.5,1.46,1.46,0,0,0,.14-.27,5.6,5.6,0,0,0,.36-.74l.77-2.48h-1.5Z"/><path class="cls-1" d="M43.25,5.53A7.78,7.78,0,0,0,36.37,0a10.38,10.38,0,0,0-3.09.16,7.16,7.16,0,0,0-5.58,4.74c0,.08,0,.15-.07.23a9.46,9.46,0,0,1,3.76,2.31h12A4.68,4.68,0,0,0,43.25,5.53Z"/><path class="cls-1" d="M43.87,25.79a8.24,8.24,0,0,1-2-1.36,5.38,5.38,0,0,1-1.64-2.72c0-.08,0-.16,0-.25V33.17c.61-.15,1.23-.29,1.82-.5a20,20,0,0,0,5.34-2.84A16.57,16.57,0,0,0,49,28.42C47.29,27.54,45.58,26.66,43.87,25.79Z"/></g></g></svg>