<?xml version="1.0" encoding="utf-8"?>
<!-- Generator: Adobe Illustrator 20.1.0, SVG Export Plug-In . SVG Version: 6.00 Build 0)  -->
<svg version="1.1" id="Шар_1" xmlns="http://www.w3.org/2000/svg" xmlns:xlink="http://www.w3.org/1999/xlink" x="0px" y="0px"
	 viewBox="0 0 41.9 41" style="enable-background:new 0 0 41.9 41;" xml:space="preserve">
<style type="text/css">
	.st0{fill:#FFFFFF;}
	.st1{fill:none;}
</style>
<g>
	<polygon class="st0" points="25.7,35.5 33,35.5 33,9.8 41.9,9.8 41.9,4 16.8,4 16.8,9.8 25.7,9.8 	"/>
	<g>
		<path class="st1" d="M22.7,24.2c-0.1,0.1-0.1,0.2-0.2,0.3c-0.4,0.6-0.4,1.2-0.2,1.8c0.1,0.7,0.4,1.3,0.7,1.8v-4.7
			C23,23.7,22.8,23.9,22.7,24.2z"/>
		<path class="st0" d="M23.1,38.3v-2.7v-23h-6.2h-2.7V9.9V4.1V1.4h2.7h4.9c-1.2-0.7-2.6-1.2-4.1-1.3C17.2,0,16.8,0,16.4,0
			c-0.8,0-1.7,0.1-2.5,0.3C10.6,0.9,8.3,2.8,7.1,6C6.9,6.7,6.7,7.5,6.7,8.3c0.1,1.4,0.3,2.7,0.6,4c0.1,0.2,0.1,0.5-0.1,0.7
			c-0.1,0.1-0.1,0.2-0.2,0.4c-0.4,1.1-0.4,2.2-0.2,3.3c0.2,1,0.7,1.9,1.5,2.5c0.1,0.1,0.2,0.2,0.2,0.4c0.2,0.5,0.4,1.1,0.5,1.6
			c0.4,1.3,0.8,2.6,1.5,3.8c0.1,0.2,0.1,0.3,0.1,0.5c0,0.6-0.1,1.1-0.3,1.6c-0.6,1.7-1.8,2.9-3.4,3.8c-2,1.1-4,2.1-6,3.1
			c-0.3,0.2-0.7,0.4-1.1,0.5c0.4,0.4,0.8,0.8,1.3,1.1C2.9,37,4.8,38.1,6.8,39c1.2,0.5,2.4,1,3.7,1.3c0.9,0.2,1.9,0.4,2.8,0.5
			c0.9,0.1,1.9,0.2,2.8,0.2c0.1,0,0.3,0,0.4,0c0.9,0,1.7-0.1,2.6-0.2c0.7-0.1,1.5-0.2,2.2-0.3c1.1-0.2,2.1-0.5,3.1-0.9
			c1.1-0.4,2.1-0.8,3.1-1.4h-1.8H23.1z"/>
	</g>
</g>
</svg>
