<?xml version="1.0" encoding="utf-8"?>
<!-- Generator: Adobe Illustrator 17.0.0, SVG Export Plug-In . SVG Version: 6.00 Build 0)  -->
<!DOCTYPE svg PUBLIC "-//W3C//DTD SVG 1.1//EN" "http://www.w3.org/Graphics/SVG/1.1/DTD/svg11.dtd">
<svg version="1.1" id="Слой_1" xmlns="http://www.w3.org/2000/svg" xmlns:xlink="http://www.w3.org/1999/xlink" x="0px" y="0px"
	 width="33.802px" height="42px" viewBox="0 0 33.802 42" enable-background="new 0 0 33.802 42" xml:space="preserve">
<path fill="#FFFFFF" d="M0,35.324c0.375-0.148,0.721-0.354,1.079-0.539c2.057-1.061,4.119-2.112,6.164-3.194
	c1.621-0.858,2.849-2.092,3.481-3.853c0.194-0.54,0.28-1.102,0.314-1.673c0.011-0.179-0.02-0.34-0.112-0.497
	c-0.717-1.214-1.056-2.577-1.512-3.893c-0.193-0.557-0.374-1.119-0.557-1.68c-0.048-0.148-0.129-0.262-0.25-0.368
	c-0.801-0.699-1.303-1.582-1.548-2.61c-0.274-1.149-0.251-2.286,0.184-3.398c0.05-0.129,0.098-0.27,0.187-0.37
	c0.19-0.217,0.161-0.434,0.097-0.689C7.19,11.216,6.94,9.857,6.884,8.472C6.851,7.67,7.04,6.897,7.317,6.151
	c1.211-3.26,3.566-5.181,6.942-5.894c1.268-0.268,2.552-0.313,3.838-0.197c4.321,0.388,7.383,3.166,8.554,6.81
	c0.263,0.819,0.285,1.648,0.189,2.493c-0.131,1.161-0.351,2.305-0.633,3.438c-0.02,0.082-0.035,0.157,0.024,0.236
	c0.365,0.495,0.529,1.067,0.608,1.665c0.169,1.275,0.004,2.495-0.63,3.63c-0.281,0.503-0.639,0.944-1.095,1.299
	c-0.075,0.059-0.119,0.124-0.147,0.216c-0.414,1.34-0.832,2.678-1.25,4.017c-0.102,0.327-0.295,0.612-0.443,0.918
	c-0.054,0.113-0.1,0.234-0.176,0.331c-0.45,0.579-0.37,1.22-0.223,1.867c0.305,1.35,1.048,2.435,2.033,3.378
	c0.742,0.71,1.603,1.233,2.514,1.695c2.132,1.08,4.255,2.179,6.382,3.271c-0.655,0.634-1.355,1.214-2.087,1.755
	c-2.035,1.505-4.24,2.69-6.633,3.524c-1.053,0.367-2.126,0.661-3.216,0.887c-0.746,0.154-1.5,0.266-2.259,0.347
	c-1.029,0.11-2.061,0.185-3.095,0.156c-0.956-0.027-1.909-0.094-2.86-0.223c-0.983-0.133-1.953-0.319-2.915-0.557
	c-1.299-0.321-2.558-0.759-3.783-1.296c-2.042-0.895-3.934-2.042-5.666-3.447C0.842,36.109,0.386,35.755,0,35.324z"/>
</svg>
