<?xml version="1.0" encoding="utf-8"?>
<!-- Generator: Adobe Illustrator 17.0.0, SVG Export Plug-In . SVG Version: 6.00 Build 0)  -->
<!DOCTYPE svg PUBLIC "-//W3C//DTD SVG 1.1//EN" "http://www.w3.org/Graphics/SVG/1.1/DTD/svg11.dtd">
<svg version="1.1" id="Слой_1" xmlns="http://www.w3.org/2000/svg" xmlns:xlink="http://www.w3.org/1999/xlink" x="0px" y="0px"
	 width="13.792px" height="20.674px" viewBox="0 0 13.792 20.674" enable-background="new 0 0 13.792 20.674" xml:space="preserve">
<g opacity="0.2">
	<g>
		<path fill="#FFFFFF" d="M6.888,0c0.877,1.473,1.874,3.16,2.884,4.839c0.912,1.516,1.897,2.993,2.745,4.544
			c0.902,1.65,1.476,3.42,1.21,5.347c-0.423,3.06-2.543,5.261-5.576,5.825c-3.605,0.67-7.096-1.535-7.952-5.023
			c-0.414-1.685-0.151-3.31,0.514-4.87C1.088,9.78,1.537,8.923,2.025,8.098c0.701-1.185,1.494-2.315,2.201-3.497
			C5.177,3.012,6.082,1.396,6.888,0z M6.238,18.908c0.099-0.092,0.493-0.283,0.542-0.54c0.094-0.49-0.309-0.622-0.758-0.656
			c-1.816-0.141-3.111-1.44-3.253-3.258c-0.035-0.446-0.157-0.815-0.666-0.776c-0.476,0.036-0.536,0.418-0.528,0.828
			C1.619,16.782,3.695,18.862,6.238,18.908z"/>
	</g>
</g>
</svg>
