<?xml version="1.0" encoding="utf-8"?>
<!-- Generator: Adobe Illustrator 20.1.0, SVG Export Plug-In . SVG Version: 6.00 Build 0)  -->
<svg version="1.1" id="Шар_1" xmlns="http://www.w3.org/2000/svg" xmlns:xlink="http://www.w3.org/1999/xlink" x="0px" y="0px"
	 viewBox="0 0 20 20" style="enable-background:new 0 0 20 20;" xml:space="preserve">
<style type="text/css">
	.st0{fill:#FFFFFF;}
</style>
<path class="st0" d="M14.2,0.4L0.4,14.3c-0.6,0.6-0.6,1.5,0,2.1l3.2,3.2c0.6,0.6,1.5,0.6,2.1,0L19.6,5.8c0.6-0.6,0.6-1.5,0-2.1
	l-3.2-3.2C15.8-0.1,14.8-0.1,14.2,0.4z M3.9,15.3l-0.8,0.8l-1.9-1.9L2,13.4L3.9,15.3z M7,15.3l-0.8,0.8l-3.4-3.4l0.8-0.8L7,15.3z
	 M7,12.3L6.2,13l-1.9-1.9l0.8-0.8L7,12.3z M8.5,10.8l-0.8,0.8L5.8,9.6l0.8-0.8L8.5,10.8z M11.5,10.8l-0.8,0.8L7.3,8.1l0.8-0.8
	L11.5,10.8z M11.5,7.7l-0.8,0.8L8.9,6.6l0.8-0.8L11.5,7.7z M13,6.2L12.3,7l-1.9-1.9l0.8-0.8L13,6.2z M16.1,6.2L15.3,7l-3.4-3.4
	l0.8-0.8L16.1,6.2z M16.1,3.2l-0.8,0.8L13.4,2l0.8-0.8L16.1,3.2z"/>
</svg>
