<?xml version="1.0" encoding="utf-8"?>
<!-- Generator: Adobe Illustrator 17.0.0, SVG Export Plug-In . SVG Version: 6.00 Build 0)  -->
<!DOCTYPE svg PUBLIC "-//W3C//DTD SVG 1.1//EN" "http://www.w3.org/Graphics/SVG/1.1/DTD/svg11.dtd">
<svg version="1.1" id="Слой_1" xmlns="http://www.w3.org/2000/svg" xmlns:xlink="http://www.w3.org/1999/xlink" x="0px" y="0px"
	 width="25px" height="25px" viewBox="0 0 25 25" enable-background="new 0 0 25 25" xml:space="preserve">
<g>
	<circle fill="#FFFFFF" cx="12.5" cy="12.5" r="12.5"/>
	<g>
		<g>
			<path d="M11.345,4.825c0.439,0.202,0.861,0.431,1.244,0.729c0.671,0.522,1.227,1.146,1.691,1.857
				c0.605,0.926,1.017,1.936,1.31,2.997c0.003,0.012,0.008,0.023,0.016,0.046c0.171-0.118,0.269-0.286,0.353-0.461
				c0.209-0.435,0.244-0.899,0.184-1.367c-0.037-0.294-0.117-0.582-0.179-0.882c0.079,0.069,0.17,0.138,0.25,0.218
				c0.795,0.794,1.456,1.687,1.981,2.681c0.334,0.631,0.599,1.289,0.773,1.982c0.14,0.554,0.208,1.118,0.197,1.689
				c-0.015,0.795-0.193,1.553-0.535,2.274c-0.323,0.68-0.765,1.274-1.288,1.807c-0.418,0.426-0.876,0.81-1.375,1.14
				c-0.31,0.205-0.625,0.401-0.939,0.601c-0.017,0.011-0.036,0.017-0.082,0.039c0.773-1.597,0.865-3.238,0.429-4.907
				c-0.434-1.663-1.321-3.041-2.729-4.083c0.109,1.571-0.244,2.982-1.233,4.208c0.039-0.379,0.051-0.755-0.016-1.13
				c-0.067-0.377-0.19-0.73-0.415-1.063c-0.067,0.229-0.125,0.441-0.192,0.649c-0.217,0.678-0.541,1.304-0.934,1.896
				c-0.357,0.537-0.67,1.094-0.784,1.742c-0.077,0.438-0.063,0.871,0.023,1.304c0.086,0.431,0.228,0.844,0.413,1.242
				c0.018,0.039,0.031,0.081,0.027,0.139c-0.229-0.138-0.465-0.265-0.684-0.417c-0.419-0.292-0.841-0.58-1.237-0.902
				c-0.552-0.449-1.017-0.977-1.35-1.615c-0.373-0.716-0.48-1.476-0.415-2.271c0.065-0.794,0.304-1.535,0.648-2.249
				c0.312-0.648,0.614-1.3,0.909-1.956c0.191-0.424,0.306-0.871,0.35-1.335C7.76,9.407,7.764,9.388,7.772,9.34
				c0.461,0.781,0.581,1.618,0.608,2.48c0.012,0.002,0.024,0.004,0.036,0.006c0.085-0.105,0.172-0.208,0.255-0.315
				c0.532-0.679,1.032-1.381,1.464-2.129c0.408-0.706,0.754-1.442,0.981-2.228c0.166-0.576,0.265-1.164,0.249-1.766
				c-0.005-0.188-0.029-0.375-0.044-0.562C11.328,4.825,11.337,4.825,11.345,4.825z"/>
		</g>
	</g>
</g>
</svg>
