<?xml version="1.0" encoding="utf-8"?>
<!-- Generator: Adobe Illustrator 20.1.0, SVG Export Plug-In . SVG Version: 6.00 Build 0)  -->
<svg version="1.1" id="Слой_1" xmlns="http://www.w3.org/2000/svg" xmlns:xlink="http://www.w3.org/1999/xlink" x="0px" y="0px"
	 viewBox="0 0 13.3 15.3" style="enable-background:new 0 0 13.3 15.3;" xml:space="preserve">
<style type="text/css">
	.st0{opacity:0;fill:#FFFFFF;}
	.st1{fill:#00B4FA;}
</style>
<g>
	<circle class="st0" cx="6.7" cy="7.7" r="12.5"/>
	<g>
		<g>
			<path class="st1" d="M5.5,0C6,0.2,6.4,0.4,6.8,0.7C7.4,1.3,8,1.9,8.4,2.6c0.6,0.9,1,1.9,1.3,3c0,0,0,0,0,0
				c0.2-0.1,0.3-0.3,0.4-0.5c0.2-0.4,0.2-0.9,0.2-1.4c0-0.3-0.1-0.6-0.2-0.9c0.1,0.1,0.2,0.1,0.3,0.2c0.8,0.8,1.5,1.7,2,2.7
				c0.3,0.6,0.6,1.3,0.8,2c0.1,0.6,0.2,1.1,0.2,1.7c0,0.8-0.2,1.6-0.5,2.3c-0.3,0.7-0.8,1.3-1.3,1.8c-0.4,0.4-0.9,0.8-1.4,1.1
				c-0.3,0.2-0.6,0.4-0.9,0.6c0,0,0,0-0.1,0c0.8-1.6,0.9-3.2,0.4-4.9c-0.4-1.7-1.3-3-2.7-4.1c0.1,1.6-0.2,3-1.2,4.2
				c0-0.4,0.1-0.8,0-1.1C5.5,9.1,5.4,8.7,5.2,8.4C5.1,8.6,5,8.8,5,9C4.7,9.7,4.4,10.3,4,10.9c-0.4,0.5-0.7,1.1-0.8,1.7
				c-0.1,0.4-0.1,0.9,0,1.3c0.1,0.4,0.2,0.8,0.4,1.2c0,0,0,0.1,0,0.1c-0.2-0.1-0.5-0.3-0.7-0.4c-0.4-0.3-0.8-0.6-1.2-0.9
				c-0.6-0.4-1-1-1.3-1.6C0.1,11.7,0,10.9,0,10.1c0.1-0.8,0.3-1.5,0.6-2.2c0.3-0.6,0.6-1.3,0.9-2c0.2-0.4,0.3-0.9,0.3-1.3
				c0,0,0,0,0-0.1C2.4,5.3,2.5,6.1,2.5,7c0,0,0,0,0,0c0.1-0.1,0.2-0.2,0.3-0.3c0.5-0.7,1-1.4,1.5-2.1c0.4-0.7,0.8-1.4,1-2.2
				c0.2-0.6,0.3-1.2,0.2-1.8C5.5,0.4,5.5,0.2,5.5,0C5.5,0,5.5,0,5.5,0z"/>
		</g>
	</g>
</g>
</svg>
