<?xml version="1.0" encoding="utf-8"?>
<!-- Generator: Adobe Illustrator 17.0.0, SVG Export Plug-In . SVG Version: 6.00 Build 0)  -->
<!DOCTYPE svg PUBLIC "-//W3C//DTD SVG 1.1//EN" "http://www.w3.org/Graphics/SVG/1.1/DTD/svg11.dtd">
<svg version="1.1" id="Слой_1" xmlns="http://www.w3.org/2000/svg" xmlns:xlink="http://www.w3.org/1999/xlink" x="0px" y="0px"
	 width="16.55px" height="19.053px" viewBox="0 0 16.55 19.053" enable-background="new 0 0 16.55 19.053" xml:space="preserve">
<g opacity="0.2">
	<g>
		<path fill="#FFFFFF" d="M6.841,0c0.545,0.25,1.068,0.536,1.544,0.905c0.833,0.647,1.523,1.423,2.099,2.304
			c0.751,1.149,1.262,2.403,1.627,3.72c0.004,0.014,0.01,0.028,0.02,0.057c0.212-0.146,0.334-0.355,0.439-0.572
			c0.259-0.54,0.302-1.115,0.229-1.697c-0.046-0.364-0.145-0.722-0.222-1.095c0.098,0.085,0.211,0.171,0.31,0.27
			c0.987,0.986,1.807,2.094,2.459,3.328c0.414,0.784,0.743,1.6,0.959,2.46c0.173,0.688,0.258,1.388,0.245,2.096
			c-0.019,0.987-0.24,1.928-0.664,2.823c-0.4,0.844-0.949,1.582-1.599,2.243c-0.519,0.529-1.087,1.005-1.706,1.415
			c-0.384,0.255-0.776,0.498-1.165,0.745c-0.021,0.013-0.044,0.021-0.102,0.048c0.96-1.983,1.073-4.02,0.533-6.091
			c-0.539-2.065-1.64-3.775-3.388-5.068c0.135,1.949-0.303,3.701-1.53,5.223c0.048-0.471,0.063-0.937-0.02-1.403
			c-0.084-0.467-0.236-0.906-0.515-1.319c-0.083,0.284-0.155,0.547-0.238,0.806c-0.269,0.842-0.672,1.618-1.159,2.353
			c-0.443,0.667-0.832,1.357-0.973,2.162c-0.096,0.543-0.078,1.081,0.029,1.619c0.107,0.535,0.283,1.047,0.513,1.541
			c0.023,0.049,0.039,0.1,0.034,0.173c-0.284-0.172-0.577-0.329-0.849-0.518c-0.52-0.362-1.044-0.72-1.535-1.119
			c-0.685-0.557-1.263-1.213-1.676-2.005c-0.463-0.889-0.596-1.832-0.515-2.819c0.081-0.985,0.377-1.905,0.804-2.791
			c0.387-0.804,0.763-1.614,1.129-2.427c0.236-0.526,0.38-1.081,0.434-1.657c0.002-0.024,0.007-0.047,0.017-0.107
			C2.979,6.573,3.127,7.612,3.16,8.681c0.015,0.002,0.03,0.005,0.044,0.007c0.106-0.13,0.213-0.259,0.317-0.391
			c0.661-0.843,1.281-1.715,1.817-2.643c0.506-0.877,0.937-1.79,1.217-2.765c0.206-0.715,0.329-1.445,0.309-2.193
			C6.859,0.465,6.83,0.232,6.811,0C6.821,0,6.831,0,6.841,0z"/>
	</g>
</g>
</svg>
