<?xml version="1.0" encoding="utf-8"?>
<!-- Generator: Adobe Illustrator 17.0.0, SVG Export Plug-In . SVG Version: 6.00 Build 0)  -->
<!DOCTYPE svg PUBLIC "-//W3C//DTD SVG 1.1//EN" "http://www.w3.org/Graphics/SVG/1.1/DTD/svg11.dtd">
<svg version="1.1" id="Слой_1" xmlns="http://www.w3.org/2000/svg" xmlns:xlink="http://www.w3.org/1999/xlink" x="0px" y="0px"
	 width="20.001px" height="16px" viewBox="0 0 20.001 16" enable-background="new 0 0 20.001 16" xml:space="preserve">
<path fill="#FFFFFF" d="M9.25,9.601c0.45,0.313,1.05,0.313,1.5,0l9.088-5.281c0.236-0.164,0.21-0.518-0.048-0.646l-9.205-3.537
	c-0.368-0.183-0.802-0.183-1.17,0L0.21,3.674C-0.048,3.801-0.074,4.156,0.162,4.32L9.25,9.601z M19.79,8.811l-2.486-1.233
	l-5.725,3.327c-0.469,0.309-1.014,0.471-1.579,0.471s-1.11-0.163-1.579-0.471L2.7,7.576L0.21,8.81
	c-0.258,0.128-0.284,0.482-0.048,0.646l9.088,6.309c0.45,0.313,1.05,0.313,1.5,0l9.088-6.309C20.074,9.293,20.048,8.939,19.79,8.811
	z"/>
</svg>
