<?xml version="1.0" encoding="utf-8"?>
<!-- Generator: Adobe Illustrator 17.0.0, SVG Export Plug-In . SVG Version: 6.00 Build 0)  -->
<!DOCTYPE svg PUBLIC "-//W3C//DTD SVG 1.1//EN" "http://www.w3.org/Graphics/SVG/1.1/DTD/svg11.dtd">
<svg version="1.1" id="Слой_1" xmlns="http://www.w3.org/2000/svg" xmlns:xlink="http://www.w3.org/1999/xlink" x="0px" y="0px"
	 width="19.876px" height="21px" viewBox="0 0 19.876 21" enable-background="new 0 0 19.876 21" xml:space="preserve">
<path fill="#3D435A" d="M19.773,19.007L18.338,14.7h-1.575l0.875,4.2H2.238l0.875-4.2H1.538l-1.436,4.307
	C-0.263,20.103,0.383,21,1.538,21h16.8C19.493,21,20.139,20.103,19.773,19.007z M15.188,5.25c0-2.899-2.35-5.25-5.25-5.25
	s-5.25,2.351-5.25,5.25c0,5.014,5.25,10.5,5.25,10.5S15.188,10.264,15.188,5.25z M7.103,5.313c0-1.566,1.268-2.834,2.835-2.834
	s2.835,1.268,2.835,2.834c0,1.567-1.269,2.835-2.835,2.835S7.103,6.879,7.103,5.313z"/>
</svg>
