<?xml version="1.0" encoding="utf-8"?>
<!-- Generator: Adobe Illustrator 17.0.0, SVG Export Plug-In . SVG Version: 6.00 Build 0)  -->
<!DOCTYPE svg PUBLIC "-//W3C//DTD SVG 1.1//EN" "http://www.w3.org/Graphics/SVG/1.1/DTD/svg11.dtd">
<svg version="1.1" id="Слой_1" xmlns="http://www.w3.org/2000/svg" xmlns:xlink="http://www.w3.org/1999/xlink" x="0px" y="0px"
	 width="17.999px" height="12px" viewBox="0 0 17.999 12" enable-background="new 0 0 17.999 12" xml:space="preserve">
<path opacity="0.5" fill="#2D3F50" d="M0.574,1.286c0.488,0.262,7.248,3.894,7.5,4.029C8.326,5.45,8.652,5.514,8.98,5.514
	c0.328,0,0.654-0.064,0.906-0.199s7.012-3.767,7.5-4.029C17.874,1.023,18.336,0,17.439,0L0.521,0C-0.376,0,0.086,1.023,0.574,1.286z
	 M17.612,3.489c-0.555,0.289-7.387,3.849-7.727,4.027S9.308,7.715,8.98,7.715c-0.328,0-0.566-0.021-0.906-0.199
	c-0.34-0.178-7.133-3.739-7.688-4.028C-0.004,3.284,0,3.523,0,3.707C0,3.891,0,11,0,11c0,0.42,0.566,1,1,1l16,0c0.434,0,1-0.58,1-1
	c0,0,0-7.108,0-7.292C17.999,3.524,18.003,3.285,17.612,3.489z"/>
</svg>
