<?xml version="1.0" encoding="utf-8"?>
<!-- Generator: Adobe Illustrator 17.0.0, SVG Export Plug-In . SVG Version: 6.00 Build 0)  -->
<!DOCTYPE svg PUBLIC "-//W3C//DTD SVG 1.1//EN" "http://www.w3.org/Graphics/SVG/1.1/DTD/svg11.dtd">
<svg version="1.1" id="Слой_1" xmlns="http://www.w3.org/2000/svg" xmlns:xlink="http://www.w3.org/1999/xlink" x="0px" y="0px"
	 width="91.207px" height="106.147px" viewBox="0 0 91.207 106.147" enable-background="new 0 0 91.207 106.147"
	 xml:space="preserve">
<g>
	
		<radialGradient id="SVGID_1_" cx="126.07" cy="22.3266" r="173.883" gradientTransform="matrix(0.9077 0 0 0.9077 -25.8215 -44.1207)" gradientUnits="userSpaceOnUse">
		<stop  offset="0" style="stop-color:#FFFFFF"/>
		<stop  offset="0.0297" style="stop-color:#FFEDD0"/>
		<stop  offset="0.0651" style="stop-color:#FEDEA6"/>
		<stop  offset="0.1013" style="stop-color:#FDD283"/>
		<stop  offset="0.1375" style="stop-color:#FCC866"/>
		<stop  offset="0.1739" style="stop-color:#FBC14C"/>
		<stop  offset="0.2104" style="stop-color:#FABB38"/>
		<stop  offset="0.2473" style="stop-color:#F9B82B"/>
		<stop  offset="0.2848" style="stop-color:#F9B726"/>
		<stop  offset="0.4788" style="stop-color:#DC5E26"/>
		<stop  offset="0.5008" style="stop-color:#D45B26"/>
		<stop  offset="0.7818" style="stop-color:#803A1B"/>
		<stop  offset="0.8244" style="stop-color:#853C1C"/>
		<stop  offset="0.874" style="stop-color:#92421F"/>
		<stop  offset="0.927" style="stop-color:#AA4B22"/>
		<stop  offset="0.9822" style="stop-color:#CD5826"/>
		<stop  offset="1" style="stop-color:#DC5E26"/>
	</radialGradient>
	<path fill="url(#SVGID_1_)" d="M68.038,59.449C68.44,59.05,68.084,59.465,68.038,59.449L68.038,59.449z M80.399,48.359
		c5.312,4.882,0.636,12.42-9.07,19.343c-13.341,9.506-36.173,17.851-55.657,16.553c15.763,5.435,42.448-3.991,56.182-13.642
		c0.012-0.009,0.025-0.015,0.037-0.025C81.821,63.791,92.104,52.995,80.399,48.359z M14.702,79.352
		c-0.012-0.006-0.025-0.012-0.037-0.015c-0.046-0.025-0.095-0.043-0.141-0.067c-0.012-0.086-0.022-0.172-0.034-0.258
		c-1.916-13.752,5.806-26.031,13.393-36.716c2.162-3.046,4.354-6.076,6.42-9.184C40.806,23.326,45.845,11.956,45.602,0
		c6.043,7.492,11.268,19.337,8.373,35.77c4.949-4.108,4.621-13.092,2.521-17.679c2.757,3.97,12.091,20.851,4.621,33.541
		c0,0-0.015,0.025-0.025,0.04c-1.127,2.902-3.881,5.895-7.547,8.947c-2.613,2.174-5.674,4.375-8.914,6.589
		c9.349-4.811,17.686-9.871,19.568-15.856c0.771-1.541,2.551-6.887,1.913-14.557c1.59,4.67,7.47,15.499,2.275,22.085
		c-0.313,0.436-0.375,0.562-0.35,0.568c-0.104,0.108-0.261,0.264-0.497,0.513c-1.904,2.266-4.587,4.425-7.753,6.647
		c3.436-1.569,6.678-3.718,9.313-6.079c6.706-6.015,9.454-13.393,1.336-15.948c6.254,0.718,9.534,2.84,10.329,6.009
		c1.314,5.628-3.881,11.136-9.801,15.549c-0.252,0.184-0.507,0.375-0.761,0.559C55.701,76.797,28.325,86.226,14.702,79.352z
		 M34.405,33.762c0.602-0.955,1.191-1.919,1.762-2.902C35.596,31.843,35.006,32.807,34.405,33.762z M32.452,36.774
		c0.457-0.685,0.909-1.379,1.354-2.072C33.361,35.396,32.909,36.09,32.452,36.774z M30.066,40.256
		c0.608-0.86,1.204-1.726,1.796-2.598C31.27,38.531,30.674,39.397,30.066,40.256z M27.723,43.545
		c-0.513,0.709-1.026,1.422-1.541,2.134C26.698,44.966,27.211,44.254,27.723,43.545c0.746-1.035,1.489-2.07,2.223-3.11l0,0
		C29.212,41.475,28.473,42.51,27.723,43.545z M23.422,49.581c0.074-0.104,0.144-0.209,0.218-0.316
		C23.566,49.372,23.495,49.477,23.422,49.581z M19.51,55.906c0.015-0.028,0.031-0.055,0.046-0.083
		C19.541,55.851,19.525,55.879,19.51,55.906z M14.815,69.029c-0.077,0.433-0.138,0.884-0.203,1.329
		C14.677,69.913,14.739,69.462,14.815,69.029z M18.644,57.579c0.209-0.427,0.43-0.844,0.651-1.259
		C19.074,56.735,18.853,57.153,18.644,57.579z M17.828,59.308c0.061-0.135,0.126-0.267,0.187-0.402
		C17.953,59.041,17.889,59.173,17.828,59.308z M17.072,61.107c0.006-0.021,0.015-0.04,0.025-0.061
		C17.088,61.067,17.078,61.086,17.072,61.107z M15.23,67.009c0.006-0.021,0.009-0.046,0.015-0.071
		C15.239,66.963,15.236,66.987,15.23,67.009z M20.523,54.116c0.157-0.267,0.322-0.531,0.485-0.798
		c-0.252,0.414-0.501,0.829-0.743,1.246c0.046-0.08,0.092-0.166,0.141-0.246C20.447,54.251,20.483,54.184,20.523,54.116z
		 M22.375,51.147c0.064-0.101,0.132-0.2,0.2-0.301c-0.405,0.611-0.804,1.231-1.197,1.861c0.052-0.083,0.107-0.166,0.157-0.252
		C21.813,52.016,22.089,51.58,22.375,51.147z M24.484,48.052c0.074-0.104,0.15-0.212,0.224-0.316
		c-0.101,0.144-0.199,0.282-0.298,0.424C24.435,48.126,24.46,48.086,24.484,48.052z"/>
	
		<radialGradient id="SVGID_2_" cx="87.3182" cy="128.2198" r="44.4128" gradientTransform="matrix(0.9077 0 0 0.9077 -25.8215 -44.1207)" gradientUnits="userSpaceOnUse">
		<stop  offset="0" style="stop-color:#FFFFFF"/>
		<stop  offset="0.0372" style="stop-color:#F9FCFE"/>
		<stop  offset="0.071" style="stop-color:#EDF7FD"/>
		<stop  offset="0.1033" style="stop-color:#DAEEFB"/>
		<stop  offset="0.1348" style="stop-color:#BFE3F7"/>
		<stop  offset="0.1657" style="stop-color:#9AD5F4"/>
		<stop  offset="0.1958" style="stop-color:#6AC7F0"/>
		<stop  offset="0.2061" style="stop-color:#54C2EE"/>
		<stop  offset="0.2581" style="stop-color:#50A6D8"/>
		<stop  offset="0.3495" style="stop-color:#4B7BB9"/>
		<stop  offset="0.4259" style="stop-color:#4660A6"/>
		<stop  offset="0.4833" style="stop-color:#434E9A"/>
		<stop  offset="0.5152" style="stop-color:#434796"/>
		<stop  offset="0.5875" style="stop-color:#3C3E83"/>
		<stop  offset="0.7308" style="stop-color:#2E2F66"/>
		<stop  offset="0.8061" style="stop-color:#29295B"/>
		<stop  offset="0.8388" style="stop-color:#2A2B5F"/>
		<stop  offset="0.881" style="stop-color:#2E326B"/>
		<stop  offset="0.9281" style="stop-color:#333D80"/>
		<stop  offset="0.9636" style="stop-color:#364896"/>
	</radialGradient>
	<path fill="url(#SVGID_2_)" d="M70.516,42.28c21.281,4.007,23.268,16.252,1.575,30.302c-0.089,0.055-0.172,0.114-0.261,0.169
		c-15.714,10.35-33.756,16.276-52.728,15.386c-0.792-0.034-1.557-0.086-2.287-0.15c-14.271-1.271-16.939-8.023-3.73-17.323
		C-5.213,78.59-5.314,91.197,19.117,92.426c1.032,1.627,2.211,3.129,3.531,4.52c4.695,4.946,11.182,9.202,20.513,9.202
		c9.291,0,15.727-4.123,20.513-9.094c4.357-4.523,7.231-10.298,8.247-17.91c2.294-1.495,4.584-3.144,6.921-4.974
		C97.492,58.209,95.303,43.956,70.516,42.28z"/>
	<linearGradient id="SVGID_3_" gradientUnits="userSpaceOnUse" x1="39.5575" y1="96.5414" x2="-0.6473" y2="96.5414">
		<stop  offset="0" style="stop-color:#FFFFFF"/>
		<stop  offset="0.0372" style="stop-color:#F9FCFE"/>
		<stop  offset="0.071" style="stop-color:#EDF7FD"/>
		<stop  offset="0.1033" style="stop-color:#DAEEFB"/>
		<stop  offset="0.1348" style="stop-color:#BFE3F7"/>
		<stop  offset="0.1657" style="stop-color:#9AD5F4"/>
		<stop  offset="0.1958" style="stop-color:#6AC7F0"/>
		<stop  offset="0.2061" style="stop-color:#54C2EE"/>
		<stop  offset="0.2581" style="stop-color:#50A6D8"/>
		<stop  offset="0.3495" style="stop-color:#4B7BB9"/>
		<stop  offset="0.4259" style="stop-color:#4660A6"/>
		<stop  offset="0.4833" style="stop-color:#434E9A"/>
		<stop  offset="0.5152" style="stop-color:#434796"/>
		<stop  offset="0.5875" style="stop-color:#3C3E83"/>
		<stop  offset="0.7308" style="stop-color:#2E2F66"/>
		<stop  offset="0.8061" style="stop-color:#29295B"/>
		<stop  offset="0.8388" style="stop-color:#2A2B5F"/>
		<stop  offset="0.881" style="stop-color:#2E326B"/>
		<stop  offset="0.9281" style="stop-color:#333D80"/>
		<stop  offset="0.9636" style="stop-color:#364896"/>
	</linearGradient>
	<path fill="url(#SVGID_3_)" d="M43.533,104.993c-0.101,0.003-0.203,0.003-0.304,0.003c-7.596,0-14.032-2.892-19.681-8.84
		c-2.26-2.383-4.041-5.06-5.364-8.069c0.301,0.019,0.605,0.037,0.918,0.049c0.353,0.018,0.706,0.028,1.059,0.037
		c1.247,2.975,2.917,5.625,5.036,7.983C30.468,102.027,36.468,104.919,43.533,104.993z"/>
	<linearGradient id="SVGID_4_" gradientUnits="userSpaceOnUse" x1="18.7284" y1="84.7465" x2="15.1393" y2="84.7465">
		<stop  offset="0" style="stop-color:#FFFFFF"/>
		<stop  offset="0.0372" style="stop-color:#F9FCFE"/>
		<stop  offset="0.071" style="stop-color:#EDF7FD"/>
		<stop  offset="0.1033" style="stop-color:#DAEEFB"/>
		<stop  offset="0.1348" style="stop-color:#BFE3F7"/>
		<stop  offset="0.1657" style="stop-color:#9AD5F4"/>
		<stop  offset="0.1958" style="stop-color:#6AC7F0"/>
		<stop  offset="0.2061" style="stop-color:#54C2EE"/>
		<stop  offset="0.2581" style="stop-color:#50A6D8"/>
		<stop  offset="0.3495" style="stop-color:#4B7BB9"/>
		<stop  offset="0.4259" style="stop-color:#4660A6"/>
		<stop  offset="0.4833" style="stop-color:#434E9A"/>
		<stop  offset="0.5152" style="stop-color:#434796"/>
		<stop  offset="0.5875" style="stop-color:#3C3E83"/>
		<stop  offset="0.7308" style="stop-color:#2E2F66"/>
		<stop  offset="0.8061" style="stop-color:#29295B"/>
		<stop  offset="0.8388" style="stop-color:#2A2B5F"/>
		<stop  offset="0.881" style="stop-color:#2E326B"/>
		<stop  offset="0.9281" style="stop-color:#333D80"/>
		<stop  offset="0.9636" style="stop-color:#364896"/>
	</linearGradient>
	<path fill="url(#SVGID_4_)" d="M18.85,84.381c-0.678-0.009-1.354-0.031-2.03-0.061c0.034,0.107,0.068,0.218,0.098,0.325
		c0.706,0.203,1.425,0.375,2.165,0.528C19.007,84.909,18.924,84.648,18.85,84.381z"/>
	<linearGradient id="SVGID_5_" gradientUnits="userSpaceOnUse" x1="46.2448" y1="0.5961" x2="15" y2="80.3784">
		<stop  offset="0" style="stop-color:#FFFFFF"/>
		<stop  offset="0.0297" style="stop-color:#FFEDD0"/>
		<stop  offset="0.0651" style="stop-color:#FEDEA6"/>
		<stop  offset="0.1013" style="stop-color:#FDD283"/>
		<stop  offset="0.1375" style="stop-color:#FCC866"/>
		<stop  offset="0.1739" style="stop-color:#FBC14C"/>
		<stop  offset="0.2104" style="stop-color:#FABB38"/>
		<stop  offset="0.2473" style="stop-color:#F9B82B"/>
		<stop  offset="0.2848" style="stop-color:#F9B726"/>
		<stop  offset="0.4788" style="stop-color:#DC5E26"/>
		<stop  offset="0.5008" style="stop-color:#D45B26"/>
		<stop  offset="0.7818" style="stop-color:#803A1B"/>
		<stop  offset="0.8244" style="stop-color:#853C1C"/>
		<stop  offset="0.874" style="stop-color:#92421F"/>
		<stop  offset="0.927" style="stop-color:#AA4B22"/>
		<stop  offset="0.9822" style="stop-color:#CD5826"/>
		<stop  offset="1" style="stop-color:#DC5E26"/>
	</linearGradient>
	<path fill="url(#SVGID_5_)" d="M15.405,75.765c0.086,1.422,0.233,2.797,0.439,4.12c0.7,0.292,1.428,0.543,2.186,0.762
		c-0.261-1.56-0.442-3.181-0.54-4.882v-1.314c0.626-12.757,6.291-21.023,11.772-29.021c0.276-0.405,0.556-0.808,0.829-1.213
		c5.343-7.823,9.831-15.708,13.197-25.693c-3.559,9.985-8.917,17.87-14.563,25.693c-0.292,0.405-0.583,0.808-0.878,1.213
		c-5.791,7.998-11.778,16.264-12.441,29.021V75.765z"/>
	<linearGradient id="SVGID_6_" gradientUnits="userSpaceOnUse" x1="43.2673" y1="75.9633" x2="43.2673" y2="105.2152">
		<stop  offset="0" style="stop-color:#FFFFFF;stop-opacity:0"/>
		<stop  offset="0.703" style="stop-color:#FFFFFF"/>
	</linearGradient>
	<path opacity="0.64" fill="url(#SVGID_6_)" d="M62.468,83.73c0,9.297-8.597,16.835-19.199,16.835
		c-10.608,0-19.202-7.538-19.202-16.835c0-9.297,8.594-16.835,19.202-16.835C53.871,66.895,62.468,74.433,62.468,83.73z"/>
	<linearGradient id="SVGID_7_" gradientUnits="userSpaceOnUse" x1="43.2673" y1="75.9633" x2="43.2673" y2="105.2152">
		<stop  offset="0" style="stop-color:#FFFFFF;stop-opacity:0"/>
		<stop  offset="0.703" style="stop-color:#FFFFFF"/>
	</linearGradient>
	<path opacity="0.64" fill="url(#SVGID_7_)" d="M62.468,83.73c0,9.297-8.597,16.835-19.199,16.835
		c-10.608,0-19.202-7.538-19.202-16.835c0-9.297,8.594-16.835,19.202-16.835C53.871,66.895,62.468,74.433,62.468,83.73z"/>
	<linearGradient id="SVGID_8_" gradientUnits="userSpaceOnUse" x1="31.7088" y1="20.5248" x2="31.7088" y2="78.5048">
		<stop  offset="0" style="stop-color:#FFFFFF"/>
		<stop  offset="0.9104" style="stop-color:#FFFFFF;stop-opacity:0.0896"/>
		<stop  offset="1" style="stop-color:#FFFFFF;stop-opacity:0"/>
	</linearGradient>
	<path opacity="0.73" fill-rule="evenodd" clip-rule="evenodd" fill="url(#SVGID_8_)" d="M28.519,78.455
		c-0.737-2.806-1.194-6.003-1.342-9.687c0-0.381,0-0.761,0-1.145c0.396-11.456,4.099-18.595,7.516-25.696
		c3.439-7.148,6.663-14.256,8.591-23.836c-2.773,10.363-7.406,18.054-12.352,25.782c-4.913,7.676-10.237,15.398-10.799,27.784
		c0,0.411,0,0.823,0,1.237c0.095,1.839,0.288,3.571,0.571,5.195C22.697,78.572,25.473,78.94,28.519,78.455z"/>
	<path fill="none" d="M49.225,64.761c1.953-1.087,3.81-2.186,5.521-3.313c-0.393-0.295-0.792-0.574-1.2-0.829
		c-1.52,1.265-3.19,2.536-4.962,3.816C48.802,64.54,49.017,64.641,49.225,64.761z"/>
	<path fill="none" d="M49.407,78.762c0.451-0.678,0.915-1.394,1.32-2.134c-4.001,1.495-8.127,2.742-12.18,3.626
		c0.405,0.531,0.869,1.007,1.391,1.431c6.786-1.716,13.362-4.13,19.242-6.942c0.15-0.633,0.267-1.262,0.35-1.882
		c-2.481,1.207-5.085,2.346-7.759,3.377C51.034,77.209,50.159,78.035,49.407,78.762z"/>
	<path fill="none" d="M53.143,83.306c2.131-1.025,3.691-2.877,4.756-5.008c-4.655,2.045-9.684,3.835-14.741,5.155
		C46.533,84.67,50.543,84.553,53.143,83.306z"/>
</g>
</svg>
