<?xml version="1.0" encoding="utf-8"?>
<!-- Generator: Adobe Illustrator 20.1.0, SVG Export Plug-In . SVG Version: 6.00 Build 0)  -->
<svg version="1.1" id="Шар_1" xmlns="http://www.w3.org/2000/svg" xmlns:xlink="http://www.w3.org/1999/xlink" x="0px" y="0px"
	 viewBox="0 0 23.3 22" style="enable-background:new 0 0 23.3 22;" xml:space="preserve">
<style type="text/css">
	.st0{fill:#FFFFFF;}
</style>
<g>
	<g>
		<path class="st0" d="M18.3,5.5c-0.1,0.3-0.1,0.7-0.2,1c0.1,0.3,0.2,0.6,0.3,0.9c0.1,1,0,1.9-0.5,2.8c-0.2,0.3-0.4,0.6-0.6,0.8
			c-0.2,0.6-0.4,1.2-0.6,1.8c-0.1,0.2-0.2,0.4-0.3,0.6c0,0,0,0.1-0.1,0.1c0,0-0.1,0.1-0.1,0.2c0,0,0,0,0,0c0.1,0.4,0.3,0.7,0.7,1.1
			c0.2,0.2,0.5,0.4,1,0.7c0.8,0.4,1.6,0.8,2.4,1.2l1,0.5l1.2,0.6h0.9l-1.7-2.1v-3.4l1.4-1.4V5.5h-1.4v2.7h-1.4V5.5H18.3z"/>
		<path class="st0" d="M15.9,15.9c-0.5-0.5-0.9-1.1-1.1-1.8c-0.1-0.3-0.1-0.7,0.1-1c0-0.1,0.1-0.1,0.1-0.2c0.1-0.2,0.2-0.3,0.2-0.5
			c0.2-0.7,0.4-1.4,0.7-2.1c0,0,0-0.1,0.1-0.1c0.2-0.2,0.4-0.4,0.6-0.7C16.9,9.2,17,8.7,17,8.3h-0.9V5.5h-2.7v2.7H12V5.5h-1.4V11
			l1.4,1.4v3.4l-1.7,2.1h9.1c-0.7-0.4-1.4-0.7-2.1-1.1C16.8,16.5,16.3,16.2,15.9,15.9z"/>
	</g>
	<path class="st0" d="M14.4,21.7c0.6-0.1,1.1-0.3,1.7-0.5c1.3-0.4,2.4-1.1,3.5-1.8c0.4-0.3,0.7-0.6,1.1-0.9
		c-1.1-0.6-2.2-1.1-3.3-1.7c-0.5-0.2-0.9-0.5-1.3-0.9c-0.5-0.5-0.9-1.1-1.1-1.8c-0.1-0.3-0.1-0.7,0.1-1c0-0.1,0.1-0.1,0.1-0.2
		c0.1-0.2,0.2-0.3,0.2-0.5c0.2-0.7,0.4-1.4,0.7-2.1c0,0,0-0.1,0.1-0.1c0.2-0.2,0.4-0.4,0.6-0.7C17,9,17,8.4,16.9,7.7
		c0-0.3-0.1-0.6-0.3-0.9c0,0,0-0.1,0-0.1c0.1-0.6,0.3-1.2,0.3-1.8C17,4.5,17,4,16.9,3.6c-0.6-1.9-2.2-3.4-4.5-3.6
		c-0.2,0-0.5,0-0.7,0c-0.4,0-0.9,0-1.3,0.1c-1.8,0.4-3,1.4-3.6,3.1C6.6,3.6,6.5,4,6.5,4.4c0,0.7,0.2,1.4,0.3,2.1
		c0,0.1,0,0.2-0.1,0.4c0,0.1-0.1,0.1-0.1,0.2C6.5,7.7,6.5,8.3,6.6,8.9c0.1,0.5,0.4,1,0.8,1.4c0.1,0.1,0.1,0.1,0.1,0.2
		c0.1,0.3,0.2,0.6,0.3,0.9c0.2,0.7,0.4,1.4,0.8,2c0,0.1,0.1,0.2,0.1,0.3c0,0.3-0.1,0.6-0.2,0.9c-0.3,0.9-1,1.6-1.8,2
		c-1.1,0.6-2.1,1.1-3.2,1.7c-0.2,0.1-0.4,0.2-0.6,0.3c0.2,0.2,0.4,0.4,0.7,0.6c0.9,0.7,1.9,1.3,3,1.8c0.6,0.3,1.3,0.5,2,0.7
		c0.5,0.1,1,0.2,1.5,0.3c0.5,0.1,1,0.1,1.5,0.1c0.1,0,0.2,0,0.2,0c0.5,0,0.9,0,1.4-0.1C13.6,21.8,14,21.8,14.4,21.7z"/>
	<g>
		<path class="st0" d="M6.7,16.5C5.9,17,5,17.4,4.1,17.8H13l-1.7-2.1v-3.4l1.4-1.4V5.5h-1.4v2.7H9.9V5.5H7.2v2.7H6.5
			c0,0.2,0,0.4,0.1,0.6c0.1,0.5,0.4,1,0.8,1.4c0.1,0.1,0.1,0.1,0.1,0.2c0.1,0.3,0.2,0.6,0.3,0.9c0.2,0.7,0.4,1.4,0.8,2
			c0,0.1,0.1,0.2,0.1,0.3c0,0.3-0.1,0.6-0.2,0.9C8.2,15.4,7.6,16.1,6.7,16.5z"/>
		<path class="st0" d="M0,17.8h0.7l1.7-0.7c0.1,0,0.2-0.1,0.3-0.1C2.7,17,2.8,17,2.9,17l0.8-0.4c0.8-0.4,1.6-0.8,2.4-1.3
			C6.7,15,7,14.6,7.2,14c0-0.1,0-0.2,0.1-0.3c-0.3-0.5-0.4-1.1-0.6-1.5c-0.1-0.2-0.1-0.3-0.2-0.5c-0.1-0.2-0.1-0.4-0.2-0.7
			c-0.5-0.5-0.9-1.2-1-1.9C5.1,8.3,5.1,7.4,5.4,6.6c0,0,0,0,0,0C5.4,6.2,5.3,5.9,5.2,5.5H3.1v2.7H1.7V5.5H0.3V11l1.4,1.4v3.4L0,17.8
			z"/>
	</g>
</g>
</svg>
