<?xml version="1.0" encoding="utf-8"?>
<!-- Generator: Adobe Illustrator 17.0.0, SVG Export Plug-In . SVG Version: 6.00 Build 0)  -->
<!DOCTYPE svg PUBLIC "-//W3C//DTD SVG 1.1//EN" "http://www.w3.org/Graphics/SVG/1.1/DTD/svg11.dtd">
<svg version="1.1" id="Слой_1" xmlns="http://www.w3.org/2000/svg" xmlns:xlink="http://www.w3.org/1999/xlink" x="0px" y="0px"
	 width="14px" height="18px" viewBox="0 0 14 18" enable-background="new 0 0 14 18" xml:space="preserve">
<path opacity="0.5" fill="#2D3F50" d="M12.8,7H11V4.6C11,1.703,9.665,0,7,0C4.334,0,3,1.703,3,4.6V7H1C0.447,7,0,7.646,0,8.199V16
	c0,0.549,0.428,1.139,0.951,1.307l1.197,0.387C2.672,17.861,3.55,18,4.1,18h5.8c0.549,0,1.428-0.139,1.951-0.307l1.196-0.387
	C13.571,17.139,14,16.549,14,16V8.199C14,7.646,13.352,7,12.8,7z M9,7H5V4.199C5,2.754,5.797,2,7,2s2,0.754,2,2.199V7z"/>
</svg>
