<?xml version="1.0" encoding="utf-8"?>
<!-- Generator: Adobe Illustrator 17.0.0, SVG Export Plug-In . SVG Version: 6.00 Build 0)  -->
<!DOCTYPE svg PUBLIC "-//W3C//DTD SVG 1.1//EN" "http://www.w3.org/Graphics/SVG/1.1/DTD/svg11.dtd">
<svg version="1.1" id="Слой_1" xmlns="http://www.w3.org/2000/svg" xmlns:xlink="http://www.w3.org/1999/xlink" x="0px" y="0px"
	 width="25px" height="25px" viewBox="0 0 25 25" enable-background="new 0 0 25 25" xml:space="preserve">
<g>
	<circle fill="#FFFFFF" cx="12.5" cy="12.5" r="12.5"/>
	<g>
		<g>
			<path d="M18.008,5.056c-0.555,0.55-1.069,1.057-1.579,1.567c-0.641,0.64-0.638,1.098,0.006,1.744
				c0.184,0.184,0.365,0.372,0.553,0.552c0.469,0.45,0.986,0.458,1.451,0.007c0.502-0.487,0.99-0.987,1.486-1.48
				c0.065-0.065,0.141-0.118,0.217-0.182c0.814,1.913-0.513,4.323-2.616,4.716c-0.524,0.098-1.093,0.064-1.624-0.021
				c-0.323-0.052-0.499,0.016-0.708,0.226c-2.348,2.363-4.706,4.717-7.055,7.08c-0.451,0.454-0.967,0.675-1.597,0.508
				c-1.125-0.297-1.532-1.654-0.759-2.523c0.264-0.296,0.557-0.567,0.838-0.848c2.142-2.143,4.282-4.288,6.432-6.424
				c0.21-0.208,0.259-0.379,0.187-0.677c-0.638-2.643,1.695-4.979,4.35-4.373C17.706,4.954,17.817,4.997,18.008,5.056z
				 M6.827,18.876c0.276,0,0.544-0.251,0.523-0.523c-0.024-0.31-0.199-0.515-0.524-0.514c-0.323,0.001-0.501,0.199-0.52,0.514
				C6.289,18.63,6.548,18.876,6.827,18.876z"/>
		</g>
	</g>
</g>
</svg>
