<?xml version="1.0" encoding="utf-8"?>
<!-- Generator: Adobe Illustrator 17.0.0, SVG Export Plug-In . SVG Version: 6.00 Build 0)  -->
<!DOCTYPE svg PUBLIC "-//W3C//DTD SVG 1.1//EN" "http://www.w3.org/Graphics/SVG/1.1/DTD/svg11.dtd">
<svg version="1.1" id="Слой_1" xmlns="http://www.w3.org/2000/svg" xmlns:xlink="http://www.w3.org/1999/xlink" x="0px" y="0px"
	 width="19.918px" height="17.719px" viewBox="0 0 19.918 17.719" enable-background="new 0 0 19.918 17.719" xml:space="preserve">
<path fill="#FFFFFF" d="M3.094,5.749c0.933-0.725,1.707-0.225,2.74,0.971c0.116,0.135,0.272-0.023,0.361-0.1
	c0.088-0.078,1.451-1.305,1.518-1.361C7.779,5.2,7.859,5.09,7.754,4.967C7.647,4.844,7.26,4.342,7.011,4.016
	c-1.808-2.365,4.946-3.969,3.909-3.994c-0.528-0.014-2.646-0.039-2.963-0.004C6.674,0.153,5.063,1.352,4.252,1.911
	C3.191,2.637,2.795,3.063,2.73,3.122c-0.3,0.262-0.048,0.867-0.592,1.344C1.563,4.969,1.204,4.588,0.871,4.88
	C0.706,5.026,0.244,5.372,0.112,5.487c-0.133,0.117-0.157,0.314-0.021,0.471c0,0,1.264,1.396,1.37,1.52
	C1.566,7.6,1.852,7.706,2.028,7.549C2.205,7.393,2.66,6.996,2.736,6.926C2.814,6.86,2.686,6.065,3.094,5.749z M8.802,6.266
	c-0.12-0.139-0.269-0.143-0.397-0.029L6.971,7.489c-0.113,0.1-0.129,0.283-0.027,0.4l8.294,9.439
	c0.194,0.223,0.53,0.246,0.751,0.053l0.97-0.813c0.222-0.195,0.245-0.533,0.052-0.758L8.802,6.266z M19.861,2.249
	c-0.074-0.494-0.33-0.391-0.463-0.182c-0.133,0.211-0.721,1.102-0.963,1.506c-0.24,0.4-0.832,1.191-1.934,0.41
	c-1.148-0.811-0.749-1.377-0.549-1.758c0.201-0.383,0.818-1.457,0.907-1.59c0.089-0.135-0.015-0.527-0.371-0.363
	c-0.357,0.164-2.523,1.025-2.823,2.26c-0.307,1.256,0.257,2.379-0.85,3.494l-1.343,1.4l1.349,1.566l1.654-1.57
	c0.394-0.396,1.236-0.781,1.998-0.607c1.633,0.369,2.524-0.244,3.061-1.258C20.016,4.651,19.936,2.743,19.861,2.249z M2.698,15.912
	c-0.208,0.209-0.208,0.549,0,0.758l0.951,0.93c0.208,0.209,0.538,0.121,0.746-0.088l4.907-4.824l-1.503-1.714L2.698,15.912z"/>
</svg>
