<?xml version="1.0" encoding="utf-8"?>
<!-- Generator: Adobe Illustrator 20.1.0, SVG Export Plug-In . SVG Version: 6.00 Build 0)  -->
<svg version="1.1" id="Слой_1" xmlns="http://www.w3.org/2000/svg" xmlns:xlink="http://www.w3.org/1999/xlink" x="0px" y="0px"
	 viewBox="0 0 18.6 18.6" style="enable-background:new 0 0 18.6 18.6;" xml:space="preserve">
<style type="text/css">
	.st0{fill:#00B4FA;}
</style>
<g>
	<g>
		<path class="st0" d="M15.7,0.3c-0.7,0.7-1.3,1.3-2,1.9c-0.8,0.8-0.8,1.4,0,2.2c0.2,0.2,0.5,0.5,0.7,0.7c0.6,0.6,1.2,0.6,1.8,0
			c0.6-0.6,1.2-1.2,1.8-1.8c0.1-0.1,0.2-0.1,0.3-0.2c1,2.4-0.6,5.4-3.2,5.9c-0.7,0.1-1.4,0.1-2,0c-0.4-0.1-0.6,0-0.9,0.3
			c-2.9,2.9-5.8,5.9-8.8,8.8c-0.6,0.6-1.2,0.8-2,0.6c-1.4-0.4-1.9-2.1-0.9-3.1c0.3-0.4,0.7-0.7,1-1.1c2.7-2.7,5.3-5.3,8-8
			c0.3-0.3,0.3-0.5,0.2-0.8C9,2.3,11.9-0.6,15.2,0.1C15.3,0.2,15.4,0.2,15.7,0.3z M1.8,17.4c0.3,0,0.7-0.3,0.6-0.6
			c0-0.4-0.2-0.6-0.6-0.6c-0.4,0-0.6,0.2-0.6,0.6C1.1,17.1,1.4,17.4,1.8,17.4z"/>
	</g>
</g>
</svg>
