<?xml version="1.0" encoding="utf-8"?>
<!-- Generator: Adobe Illustrator 17.0.0, SVG Export Plug-In . SVG Version: 6.00 Build 0)  -->
<!DOCTYPE svg PUBLIC "-//W3C//DTD SVG 1.1//EN" "http://www.w3.org/Graphics/SVG/1.1/DTD/svg11.dtd">
<svg version="1.1" id="Слой_1" xmlns="http://www.w3.org/2000/svg" xmlns:xlink="http://www.w3.org/1999/xlink" x="0px" y="0px"
	 width="18.619px" height="18.614px" viewBox="0 0 18.619 18.614" enable-background="new 0 0 18.619 18.614" xml:space="preserve">
<g opacity="0.2">
	<g>
		<path fill="#FFFFFF" d="M15.669,0.279c-0.689,0.683-1.326,1.312-1.96,1.945c-0.796,0.795-0.792,1.363,0.007,2.164
			c0.228,0.229,0.454,0.461,0.687,0.685c0.582,0.559,1.224,0.569,1.801,0.009c0.623-0.604,1.229-1.226,1.845-1.837
			c0.081-0.08,0.174-0.147,0.269-0.226c1.011,2.374-0.636,5.366-3.247,5.853c-0.651,0.122-1.357,0.079-2.016-0.027
			c-0.401-0.064-0.619,0.02-0.879,0.281c-2.915,2.933-5.842,5.855-8.757,8.787c-0.56,0.563-1.2,0.837-1.983,0.631
			c-1.397-0.369-1.902-2.053-0.942-3.131c0.328-0.368,0.692-0.704,1.041-1.053c2.659-2.66,5.315-5.323,7.983-7.973
			c0.26-0.258,0.322-0.471,0.233-0.84c-0.792-3.281,2.103-6.18,5.4-5.428C15.294,0.153,15.432,0.206,15.669,0.279z M1.79,17.433
			c0.343-0.001,0.676-0.311,0.649-0.649c-0.03-0.384-0.246-0.639-0.65-0.638c-0.401,0.001-0.622,0.247-0.646,0.638
			C1.122,17.128,1.444,17.434,1.79,17.433z"/>
	</g>
</g>
</svg>
